# xmcd
#
# Track frame offsets: 
#        150
#        15258
#        30253
#        42670
#        58464
#        76138
#        90187
#        102163
#        114335
#        126390
#        142840
#        159271
#        176359
#        192091
#        205990
#        223206
#        237619
#        255621
#        269115
#        285175
#        301317
#        312523
#        327009
#        342478
#
# Disc length: 4746 seconds
#
# Revision: 0
# Processed by: cddbd v1.5.2PL0 Copyright (c) Steve Scherf et al.
# Submitted via: ExactAudioCopy v0.99pb4
#
DISCID=50128818
DTITLE=Various Artist - MNM Party 2016 CD 1 - Newest Party Hits
DYEAR=2016
DGENRE=Dance
TTITLE0=Sigala Feat. Bryn Christopher - Sweet Lovin'
TTITLE1=Lea Rue - Sleep, For The Weak! (Lost Frequencies Remix)
TTITLE2=Major Lazer Feat. Nyla and Fuse ODG - Light It Up (Remix)
TTITLE3=Sigma and Rita Ora - Coming Home
TTITLE4=Diplo and Sleepy Tom - Be Right There
TTITLE5=Billie - Caught By The Tide
TTITLE6=Alvar and Millas - Chasing Our Future
TTITLE7=Pharrell Williams - Freedom
TTITLE8=Dzeko and Torres Feat. Delaney Jane - L'Amour Toujours (Tiësto E
TTITLE8=dit)
TTITLE9=A-Trak Feat. Jamie Lidell - We All Fall Down
TTITLE10=Robin Schulz Feat. Francesco Yates - Sugar
TTITLE11=Bjonr Feat. Tom Bailey - Fade Into You
TTITLE12=Dimitri Vegas and Like Mike Vs. Ummet Ozcan - The Hum
TTITLE13=Fetty Wap Feat. Remy Boyz - 679
TTITLE14=Avicii - Broken Arrows
TTITLE15=Kate Ryan - Wonderful Life
TTITLE16=Rudimental Feat. Ed Sheeran - Lay It All On Me
TTITLE17=Silentó - Watch Me (Whip - Nae Nae)
TTITLE18=Julian Cross and Bear Feat. Libbie - Forget Me Nots
TTITLE19=De Jeugd Van Tegenwoordig - Manon
TTITLE20=Safety First - You Are Beautiful
TTITLE21=Felix Jaehn Feat. Lost Frequencies and Linying - Eagle Eyes
TTITLE22=Woodie Smalls - About The Dutch
TTITLE23=Regi and Sem Thomasson Feat. LX - The Party Is Over
EXTD=
EXTT0=
EXTT1=
EXTT2=
EXTT3=
EXTT4=
EXTT5=
EXTT6=
EXTT7=
EXTT8=
EXTT9=
EXTT10=
EXTT11=
EXTT12=
EXTT13=
EXTT14=
EXTT15=
EXTT16=
EXTT17=
EXTT18=
EXTT19=
EXTT20=
EXTT21=
EXTT22=
EXTT23=
PLAYORDER=
